PathFileType	4	(X/Y/Z)	Patient4_TMGait_0pt6_02_left_38.trc.trc
DataRate	CameraRate	NumFrames	NumMarkers	Units	OrigDataRate	OrigDataStartFrame	OrigNumFrames
82.352941176471	82.352941176471	5	33	mm	82.352941176471	18	       141
Frame#	Time	Sacral			L.Shoulder			Chest			R.Shoulder			Neck			R.ASIS			L.ASIS			R.Thigh.Superior			R.Thigh.Lateral			R.Thigh.Inferior			R.Patella			L.Thigh.Superior			L.Thigh.Lateral			L.Thigh.Inferior			L.Patella			L.Shank.Superior			L.Shank.Lateral			L.Shank.Inferior			R.Shank.Superior			R.Shank.Lateral			R.Shank.Inferior			R.Heel			R.Midfoot.Superior			R.Midfoot.Lateral			R.Toe			L.Heel			L.Midfoot.Lateral			L.Midfoot.Superior			L.Toe			L.Elbow			L.Wrist			R.Elbow			R.Wrist			
		X1	Y1	Z1	X2	Y2	Z2	X3	Y3	Z3	X4	Y4	Z4	X5	Y5	Z5	X6	Y6	Z6	X7	Y7	Z7	X8	Y8	Z8	X9	Y9	Z9	X10	Y10	Z10	X11	Y11	Z11	X12	Y12	Z12	X13	Y13	Z13	X14	Y14	Z14	X15	Y15	Z15	X16	Y16	Z16	X17	Y17	Z17	X18	Y18	Z18	X19	Y19	Z19	X20	Y20	Z20	X21	Y21	Z21	X22	Y22	Z22	X23	Y23	Z23	X24	Y24	Z24	X25	Y25	Z25	X26	Y26	Z26	X27	Y27	Z27	X28	Y28	Z28	X29	Y29	Z29	X30	Y30	Z30	X31	Y31	Z31	X32	Y32	Z32	X33	Y33	Z33	

18	46.586428571429	810.876137469396	1014.430757502095	535.450973030344	1010.969097734098	1447.699447402858	388.144480090882	1114.263095287954	1352.083736287442	534.030541238574	1047.188837162567	1417.712307828649	717.813367072846	1029.816908858307	1491.795913151179	542.580017243392	1033.394377585152	940.147220497303	650.696961437414	1020.658762629285	964.169984385040	376.211414195030	1040.139591760637	732.598207065615	622.936217688207	937.754765424139	635.379763388436	677.336375196078	1008.090760176460	573.240077078105	602.874129795261	993.032532127162	488.214712406034	608.206212313302	1090.825626111588	782.380590035825	398.097690599008	1045.745723623658	654.351307523856	314.577641691735	1150.989499486794	596.941485429185	374.128871379919	1180.706920785118	535.332423674297	369.415407255210	1168.847406054651	464.339737450156	359.711072890118	1112.410780876734	330.615678855544	308.200929637016	1207.304308000043	238.134586044592	361.220407573888	958.563288148485	402.708211443730	610.220141599759	872.561306160338	303.871862895588	660.952839820774	917.256122443325	207.123930397969	601.186821231063	780.947659231972	42.644524526164	555.440576842555	951.286540181865	98.814640334805	600.429855491014	861.072818248343	36.420778278451	633.587864029986	1069.168841764041	47.120664054520	630.486430479385	1136.872028431675	53.188076416075	399.609236041300	1209.857866017847	62.284345606341	319.186151955490	1275.897616632253	143.943833006849	338.692211600144	1410.782541579865	122.644651813943	312.326679499224	857.085507284141	1141.642917950824	252.672174590222	973.066821919860	908.802636736861	214.920408965156	1077.286076934511	1067.974772436988	815.724733848811	1291.512336834037	994.383663419910	699.738081407324	
19	46.598571428571	811.325926067087	1013.338887753945	533.800894755518	1010.445228256972	1446.882861018272	386.608629356345	1113.709742292094	1351.668784915733	532.809159041245	1045.873288299303	1417.143573665843	716.431171915737	1028.747890855089	1491.063472177070	541.093714552886	1033.667166890903	939.527427166076	649.780217331849	1021.583456958133	962.903536710100	375.157686504661	1038.916410140734	731.443099316618	622.185414209273	935.338228727143	635.043271410868	676.627983755919	1004.914651801079	572.082291421621	602.310096329294	989.028454243733	487.167650241886	607.563134670539	1091.259427857193	780.201757650665	398.313914138112	1045.128329784954	651.673214845739	315.916520067020	1149.719899456144	594.098468158908	375.963610061127	1178.590220808090	531.702311851960	371.690027777326	1165.852581468035	460.239342260170	362.299580209230	1107.297170448249	327.111535355657	311.724328586592	1200.595721520770	233.568379764247	365.447322681448	953.852492057894	402.021926773701	609.698365574316	867.148574360696	303.918884584580	660.675257909607	910.924942235641	206.782514040634	600.916554849047	773.601331040427	42.646970588338	555.477715501460	943.991413996775	98.638501606896	600.327982494028	853.718576133665	36.386494581655	633.587199149923	1061.880860424776	46.827878517663	630.485341276642	1126.985204010338	50.576258409879	404.470954914352	1200.357690990703	57.983909117976	324.322462536339	1267.855520743461	138.174514698688	343.912356353001	1402.312859318142	114.071357744419	318.091922184914	856.560760630362	1141.155259163146	250.794969529395	970.435773950403	907.254181668033	212.429983214208	1075.553515139477	1067.655344013115	814.922889988501	1289.092307261605	996.501027570834	696.628457144167	
20	46.610714285714	811.926088379926	1012.121118312177	531.963745813686	1010.004364465499	1445.946476749672	384.861524967999	1113.226761070920	1351.191826307248	531.427200938092	1044.513533814846	1416.484434962671	714.838017452542	1027.707169331474	1490.244447424412	539.391690393902	1034.076831006528	938.829716964650	648.732188189896	1022.722145882902	961.495224216826	373.992679413605	1037.971070034850	730.219437696833	621.498913627303	933.167812947098	634.630515694577	675.874170593890	1002.088108859540	570.852142072586	601.783979137536	985.358236697634	486.001761112332	606.909812955201	1091.883682862496	777.745882704117	398.468106453636	1044.450511411433	648.759532830951	317.393646711776	1148.423207820034	591.001684548157	377.925472013095	1176.229543408697	527.661323436182	374.269223090047	1162.538794976688	455.721189359833	365.132131300217	1101.579860805911	323.387385911885	315.339339990975	1192.909756018056	228.519731651912	369.908969344481	949.414253818193	401.241633412177	609.176143541645	861.917981857487	303.957039896274	660.385070426331	904.694644750036	206.398088762870	600.648808701678	766.259181489507	42.669735025373	555.526268895249	936.675988072804	98.416334043610	600.175401281269	846.368283254515	36.339938470375	633.581401317766	1054.597649613854	46.492868617133	630.487685310054	1115.450132986413	47.855898240228	409.108783093536	1189.424716844274	53.516338909740	329.437384212777	1258.621383465601	131.799501583067	349.590886133737	1392.607422932148	104.362775823793	324.575305161219	856.360470874199	1140.380539029320	248.737419289578	968.278923040547	905.491769857369	209.903713495854	1073.465487287404	1067.283746523169	814.248001455166	1286.347107686888	997.908668160769	694.067766680814	
21	46.622857142857	812.649429311706	1010.834555576151	529.954297692263	1009.686859054984	1444.914715160062	382.905226602800	1112.840720989927	1350.669226683858	529.889545861914	1043.148959111122	1415.769835833011	713.033705859120	1026.740365257557	1489.372240068198	537.468862927972	1034.593385889595	938.067077486803	647.553100619396	1024.035097539361	959.995829461968	372.734998066122	1037.293504528399	728.947304521008	620.869930204748	931.249171939467	634.150683197196	675.054420005062	999.636903335741	569.567653372191	601.279129315408	982.048496450928	484.726389376023	606.224340783640	1092.636319876808	775.055974646502	398.543640546552	1043.670125878936	645.716904104802	318.936914726577	1147.066509492693	587.746742446524	379.966495702915	1173.611627971268	523.373613794611	377.086138874945	1158.974144284473	450.998261229509	368.095587802656	1095.513263771319	319.592355221063	318.918563948770	1184.633115538046	223.266280434120	374.438560913060	945.268280201161	400.379210990740	608.639816720197	856.884233543090	304.008618274749	660.066243316058	898.580153572191	205.986601993803	600.377630057819	758.929419479394	42.747421015805	555.587413892176	929.345137811203	98.147935125968	599.958350973407	839.028995785687	36.294022344425	633.564475958547	1047.322875918272	46.107302306162	630.495475800854	1102.910545341229	45.204688122957	413.373935878787	1177.656638254467	49.169990772380	334.342770695896	1248.688090642503	125.194244111151	355.524313880678	1382.173322541527	94.075600359766	331.509195661602	856.521103900324	1139.340591890465	246.497802850236	966.569400123523	903.502834636251	207.346291356927	1071.012826304115	1066.884025268913	813.674168601347	1283.296687244867	998.555124063471	692.073496747400	
22	46.635000000000	813.459547449879	1009.547757227267	527.798793967595	1009.531652815692	1443.822705475276	380.748895740904	1112.577466726599	1350.124341215875	528.204655993513	1041.830313948804	1415.050019988591	711.025918647554	1025.897342064289	1488.490316054665	535.326246142518	1035.180994740004	937.258870048183	646.245406990827	1025.463150472930	958.471885513972	371.402379273167	1036.866088578461	727.657749467361	620.269151657121	929.592217938856	633.621803022159	674.145912685493	997.581983319618	568.255967128879	600.767031049478	979.126017265055	483.359380265736	605.481676658854	1093.454653407186	772.223827041814	398.530142421477	1042.792939849149	642.694943436125	320.453800737917	1145.652112805093	584.479025786709	382.027110351204	1170.782581000008	519.050649958239	380.035727337910	1155.272725848147	446.316220386457	371.047518059920	1089.386281428379	315.908253898058	322.302317924791	1176.171444981222	218.104724121992	378.837106800205	941.432739163772	399.456152164534	608.072960730102	852.063875306460	304.104261841413	659.702226413724	892.598864475217	205.573925921492	600.096330181515	751.623361778756	42.928089124234	555.661568612041	922.012428443578	97.840348707158	599.669583720678	831.710340384050	36.269541300216	633.530825384477	1040.061779173421	45.660350897776	630.509918436176	1090.025100516604	42.790608724317	417.132459485488	1165.643762638592	45.216605487253	338.841920634803	1238.535215042728	118.755169184323	361.446685556615	1371.507143599322	83.819462820653	338.528161474296	857.081414493123	1138.069441650081	244.079189393621	965.287431411781	901.293922544403	204.768074768613	1068.188877569953	1066.493528610031	813.166928794957	1279.950669047436	998.395046183584	690.655843719439	
